<svg xmlns="http://www.w3.org/2000/svg" viewBox="0 0 470.79 435"><title>Senza titolo-2</title><path d="M716.5,771v70.5h35V771.3a144.07,144.07,0,0,0,60.26-21.45l44.38,54.56L883,782.52,838.56,728A145.54,145.54,0,0,0,878.3,644.5h70.2v-35H878.3A145.55,145.55,0,0,0,838.55,526L883,471.44,856.1,449.57l-44.34,54.57A144.06,144.06,0,0,0,751.5,482.7V412.5h-35V483" transform="translate(-480.21 -410)" style="fill:none;stroke:#e01010;stroke-miterlimit:10;stroke-width:5px"/><polyline points="236.29 362 236.29 361 236.29 73" style="fill:none;stroke:#e01010;stroke-miterlimit:10;stroke-width:5px"/><line x1="226.29" y1="186" x2="226.29" y2="92" style="fill:none;stroke:#4545f4;stroke-miterlimit:10;stroke-width:5px"/><line x1="226.29" y1="341" x2="226.29" y2="247" style="fill:none;stroke:#4545f4;stroke-miterlimit:10;stroke-width:5px"/><polyline points="225.79 3.5 190.29 3.5 190.29 42.59 156.95 8.88 132.02 33.63 190.29 92.09 190.29 186.12 108.89 138.91 87.77 59.38 54.06 68.44 66.36 114.16 31.44 93.99 13.96 124.3 49.11 144.59 3.06 156.93 12.12 190.74 91.98 169.34 173.42 216.36 91.64 263.57 12.12 242.26 3.06 276.07 48.78 288.32 13.84 308.49 31.34 338.8 66.49 318.5 54.15 364.56 87.96 373.61 108.98 293.75 190.29 246.59 190.29 340.91 132.2 399.38 156.77 424.12 190.29 390.41 190.29 432.5 225.29 432.5 225.29 391" style="fill:none;stroke:#0e64e2;stroke-miterlimit:10;stroke-width:5px"/><line x1="226.29" y1="94" x2="226.29" style="fill:none;stroke:#4545f4;stroke-miterlimit:10;stroke-width:5px"/><line x1="226.29" y1="258" x2="226.29" y2="164" style="fill:none;stroke:#4545f4;stroke-miterlimit:10;stroke-width:5px"/><line x1="226.29" y1="423" x2="226.29" y2="329" style="fill:none;stroke:#4545f4;stroke-miterlimit:10;stroke-width:5px"/></svg>