<svg xmlns="http://www.w3.org/2000/svg" xmlns:xlink="http://www.w3.org/1999/xlink" viewBox="0 0 465.23 429.5"><defs><radialGradient id="a" cx="832.5" cy="627" r="172.43" gradientUnits="userSpaceOnUse"><stop offset="0" stop-color="#ff0030"/><stop offset="0.27" stop-color="#fc0029"/><stop offset="0.66" stop-color="#f30016"/><stop offset="1" stop-color="#e90000"/></radialGradient><radialGradient id="b" cx="232.73" cy="215" r="102.18" xlink:href="#a"/><radialGradient id="c" cx="111.36" cy="215" r="170.9" gradientUnits="userSpaceOnUse"><stop offset="0" stop-color="#15ceff"/><stop offset="0.1" stop-color="#14c7ff"/><stop offset="0.25" stop-color="#12b4ff"/><stop offset="0.42" stop-color="#0f94ff"/><stop offset="0.62" stop-color="#0b69ff"/><stop offset="0.83" stop-color="#0531ff"/><stop offset="1" stop-color="blue"/></radialGradient></defs><title>Senza titolo-1</title><path d="M716.5,771v70.5h35V771.3a144.07,144.07,0,0,0,60.26-21.45l44.38,54.56L883,782.52,838.56,728A145.54,145.54,0,0,0,878.3,644.5h70.2v-35H878.3A145.55,145.55,0,0,0,838.55,526L883,471.44,856.1,449.57l-44.34,54.57A144.06,144.06,0,0,0,751.5,482.7V412.5h-35V483" transform="translate(-483.27 -412.5)" style="fill:url(#a)"/><polyline points="232.73 359.5 232.73 358.5 232.73 70.5" style="fill:url(#b)"/><polyline points="222.73 0.5 187.73 0.5 187.73 40.09 154.14 6.38 129.33 31.13 187.73 89.59 187.73 183.62 106.08 136.41 84.83 56.88 51.06 65.94 63.32 111.66 28.39 91.49 10.9 121.8 46.05 142.09 0 154.43 9.06 188.24 88.92 166.84 170.35 213.86 88.58 261.07 9.06 239.76 0 273.57 45.71 285.82 10.78 305.99 28.28 336.3 63.43 316 51.09 362.06 84.9 371.11 106.17 291.25 187.73 244.09 187.73 338.41 129.39 396.88 154.08 421.62 187.73 387.91 187.73 429.5 222.73 429.5 222.73 388.5" style="fill:url(#c)"/></svg>