<?xml version="1.0" standalone="no"?>
<!DOCTYPE svg PUBLIC "-//W3C//DTD SVG 20010904//EN"
 "http://www.w3.org/TR/2001/REC-SVG-20010904/DTD/svg10.dtd">
<svg version="1.0" xmlns="http://www.w3.org/2000/svg"
 width="1962.000000pt" height="1962.000000pt" viewBox="0 0 1962.000000 1962.000000"
 preserveAspectRatio="xMidYMid meet">
<metadata>
Created by potrace 1.11, written by Peter Selinger 2001-2013
</metadata>
<g transform="translate(0.000000,1962.000000) scale(0.100000,-0.100000)"
fill="#000000" stroke="none">
<path d="M9325 18850 c4 -18 -2 -20 -58 -20 -34 -1 -372 -2 -752 -3 l-690 -2
0 -727 c0 -399 -3 -729 -6 -732 -4 -4 -1053 1047 -1251 1254 l-27 28 -333
-329 c-573 -568 -848 -843 -848 -850 0 -6 878 -890 1983 -1997 l482 -482 0
-1845 c0 -1015 -1 -1845 -3 -1845 -2 0 -47 25 -100 56 -53 31 -112 65 -130 76
-18 10 -103 59 -187 108 -84 49 -169 98 -187 108 -28 16 -216 125 -538 312
-122 70 -245 142 -300 175 -30 18 -75 44 -100 57 -49 28 -395 229 -782 454
-136 79 -269 157 -296 172 -27 15 -168 96 -314 181 l-265 154 -23 96 c-12 53
-29 116 -36 141 -8 25 -29 106 -49 180 -19 74 -42 160 -50 190 -13 48 -170
639 -181 680 -2 8 -17 67 -34 130 -17 63 -35 131 -40 150 -4 19 -35 136 -68
260 -54 201 -143 535 -217 815 -14 55 -44 167 -66 248 -22 81 -42 159 -45 172
-2 14 -8 35 -13 47 -5 13 -21 73 -36 133 -15 61 -31 114 -35 119 -5 4 -57 -5
-117 -22 -59 -16 -218 -59 -353 -95 -135 -36 -355 -96 -490 -132 -135 -37
-249 -68 -255 -69 -5 -2 -23 -6 -40 -10 -16 -4 -70 -19 -120 -33 -49 -14 -97
-27 -105 -28 -87 -20 -120 -31 -120 -41 0 -14 22 -101 105 -404 36 -135 86
-319 110 -410 25 -91 54 -199 65 -240 11 -41 35 -131 54 -200 19 -69 46 -168
60 -220 14 -52 36 -137 50 -187 l25 -93 -47 27 c-26 14 -51 30 -57 33 -5 4
-30 19 -55 32 -52 29 -57 32 -295 170 -636 369 -850 491 -864 494 -12 3 -37
-33 -91 -128 -41 -73 -89 -157 -107 -188 -18 -30 -46 -80 -63 -110 -17 -30
-39 -70 -50 -88 -11 -18 -71 -122 -134 -230 -62 -108 -157 -273 -211 -367
-175 -301 -185 -319 -177 -326 4 -4 88 -53 187 -110 825 -474 1132 -655 1122
-661 -7 -3 -156 -45 -332 -91 -308 -83 -887 -238 -1085 -291 -52 -14 -149 -40
-215 -57 -66 -17 -121 -32 -122 -33 -3 -2 38 -156 242 -916 70 -261 140 -522
155 -580 16 -57 33 -106 39 -108 5 -2 54 9 108 23 54 15 105 29 113 31 8 1
141 37 295 79 154 42 288 78 297 80 28 6 468 124 523 140 41 12 350 95 730
195 39 10 95 26 125 34 30 8 91 24 135 36 44 11 94 25 111 31 17 5 41 12 54
14 13 2 80 20 149 39 69 19 221 60 336 91 116 30 253 67 306 81 l96 26 44 -25
c24 -14 71 -41 104 -60 33 -18 159 -91 280 -161 121 -71 240 -140 265 -154 25
-14 198 -114 385 -222 187 -108 464 -268 615 -355 151 -87 370 -213 485 -280
116 -67 350 -202 520 -300 171 -98 321 -185 335 -194 14 -9 54 -32 89 -51 35
-19 64 -39 63 -45 -1 -9 -28 -25 -177 -110 -22 -12 -94 -54 -160 -92 -66 -39
-415 -240 -775 -448 -360 -208 -695 -401 -745 -430 -93 -54 -582 -337 -645
-373 -19 -10 -184 -106 -367 -211 l-331 -192 -89 24 c-48 14 -101 28 -118 32
-16 5 -34 9 -40 11 -41 11 -518 140 -590 159 -49 13 -126 33 -170 45 -532 143
-1326 356 -1385 372 -41 10 -142 37 -225 60 -82 22 -157 42 -165 43 -8 2 -116
32 -240 65 -222 61 -328 89 -342 90 -8 0 -9 -4 -153 -540 -64 -239 -136 -509
-160 -600 -25 -91 -63 -232 -85 -314 -22 -82 -39 -150 -38 -152 4 -3 235 -66
383 -104 61 -15 331 -88 600 -160 270 -73 497 -134 505 -136 137 -34 259 -71
257 -76 -1 -4 -117 -73 -257 -154 -140 -80 -268 -155 -285 -165 -16 -10 -41
-24 -55 -32 -74 -40 -696 -400 -704 -407 -5 -5 4 -30 19 -57 15 -26 39 -68 53
-93 14 -25 75 -130 135 -235 119 -205 169 -292 430 -745 93 -162 174 -300 179
-307 7 -8 30 1 86 34 42 25 97 57 122 71 47 26 508 292 595 343 233 137 531
306 533 304 2 -2 -44 -183 -103 -402 -298 -1110 -363 -1359 -357 -1365 6 -6
258 -75 537 -148 61 -16 220 -59 355 -95 135 -37 252 -68 260 -70 8 -1 42 -10
75 -20 33 -9 103 -27 155 -41 52 -14 117 -31 144 -39 61 -18 75 -19 81 -2 2 6
38 143 79 302 42 160 123 470 181 690 115 434 285 1081 290 1105 2 8 27 101
55 205 130 489 212 801 215 815 2 8 13 51 25 95 12 44 25 96 30 115 5 19 17
41 27 48 22 16 104 64 613 359 217 126 404 234 415 241 321 186 489 284 525
304 39 22 155 89 700 406 52 30 111 64 130 75 19 10 71 40 115 67 44 26 154
90 245 142 91 53 223 130 295 171 71 41 132 71 135 67 3 -5 5 -837 5 -1849 l0
-1841 -117 -117 c-64 -65 -284 -287 -489 -493 -204 -206 -704 -709 -1110
-1118 -407 -409 -739 -747 -739 -753 0 -8 968 -989 1129 -1145 l34 -33 640
644 c352 355 643 643 646 641 3 -2 6 -360 6 -795 0 -523 3 -791 10 -792 5 -1
380 -2 833 -3 l822 -1 0 247 c0 248 1 254 33 249 4 0 7 14 8 32 1 42 1 17556
0 17580 -1 15 -13 17 -105 17 -99 0 -105 -1 -101 -20z m0 -8250 c0 -8008 0
-8015 -20 -8020 -20 -6 -20 -15 -22 -795 -1 -435 -2 -800 -2 -811 l-1 -22
-624 0 -623 0 -1 917 c0 504 -1 931 -1 950 -1 33 -32 3 -750 -719 l-748 -754
-434 437 c-239 241 -434 442 -434 447 0 7 1592 1615 2238 2260 70 70 127 136
128 146 3 101 0 4126 -3 4130 -3 3 -72 -34 -154 -82 -82 -48 -165 -95 -184
-106 -54 -31 -203 -117 -220 -128 -8 -5 -121 -70 -250 -145 -129 -75 -242
-141 -250 -146 -16 -10 -219 -127 -280 -161 -35 -20 -258 -150 -317 -184 -17
-11 -62 -37 -100 -58 -189 -109 -939 -544 -1013 -588 -47 -28 -98 -59 -115
-68 -33 -18 -156 -89 -183 -105 -27 -16 -174 -101 -212 -123 -272 -154 -300
-173 -309 -210 -5 -21 -49 -185 -96 -367 -48 -181 -89 -337 -90 -345 -6 -24
-113 -430 -130 -490 -18 -63 -285 -1077 -290 -1100 -1 -8 -32 -125 -68 -260
-35 -135 -88 -336 -117 -447 -30 -111 -56 -207 -60 -212 -4 -7 -78 9 -200 43
-107 29 -375 102 -594 160 -220 59 -402 109 -404 111 -5 5 6 55 53 225 40 147
345 1288 350 1310 2 8 13 47 24 85 19 69 53 196 93 348 11 43 18 80 16 82 -2
2 -78 -39 -168 -91 -91 -53 -183 -106 -205 -119 -22 -12 -303 -174 -624 -359
-321 -186 -587 -334 -591 -329 -4 4 -78 132 -165 283 -86 151 -166 287 -176
302 -11 15 -19 30 -19 33 0 3 -11 22 -23 43 -13 20 -36 58 -50 85 -64 113 -83
146 -133 231 -29 50 -50 94 -46 97 6 6 196 116 1172 679 346 199 390 225 390
231 0 5 -75 27 -180 53 -8 2 -337 90 -730 196 -393 105 -803 214 -910 242
-107 28 -199 55 -204 59 -5 4 26 137 69 296 42 158 108 403 145 543 37 140 75
280 84 312 l17 56 32 -9 c58 -16 370 -99 462 -124 50 -13 117 -31 150 -40 33
-9 67 -18 75 -20 8 -2 67 -18 130 -35 63 -17 123 -33 133 -35 9 -2 59 -15 110
-30 81 -22 397 -107 677 -181 52 -14 304 -82 560 -151 496 -133 603 -162 800
-214 l125 -33 70 41 c39 22 86 50 105 61 47 26 347 200 385 223 17 10 41 24
55 32 14 7 291 166 615 354 325 187 606 350 625 361 19 11 107 61 195 112 350
203 672 389 705 407 20 11 92 53 160 93 69 40 150 86 180 103 30 16 62 36 71
43 8 8 18 14 21 14 7 0 390 220 401 230 7 6 -133 92 -323 198 -25 14 -78 45
-118 69 -41 24 -76 43 -79 43 -3 0 -17 8 -31 19 -15 10 -47 29 -72 43 -25 14
-173 99 -330 190 -623 360 -696 402 -725 417 -16 9 -32 18 -35 21 -3 3 -63 39
-135 80 -71 40 -252 144 -401 231 -150 86 -291 168 -315 182 -57 31 -73 41
-334 192 -121 70 -240 139 -265 153 -25 14 -108 62 -185 107 -214 125 -232
135 -237 129 -3 -2 -14 -6 -24 -8 -24 -5 -213 -55 -419 -111 -171 -46 -500
-135 -525 -140 -8 -2 -64 -18 -125 -35 -60 -16 -119 -32 -130 -34 -11 -3 -114
-30 -230 -62 -115 -31 -266 -71 -335 -89 -69 -18 -183 -49 -255 -68 -163 -45
-921 -248 -1073 -288 -62 -16 -119 -32 -126 -35 -13 -5 -24 14 -32 51 -1 6
-34 129 -74 275 -74 275 -77 287 -84 320 -3 11 -7 24 -10 28 -3 5 -7 19 -9 33
-3 13 -21 83 -40 154 -63 231 -89 336 -85 340 4 5 625 174 843 230 28 7 118
31 200 53 693 187 848 228 930 249 33 8 63 18 67 22 6 5 -237 150 -420 251
-25 14 -51 29 -56 33 -6 5 -157 92 -336 195 -679 390 -760 437 -760 443 0 4
41 78 91 165 50 88 102 177 114 199 13 22 71 123 130 225 59 102 145 251 192
332 46 81 88 150 91 152 4 2 34 -12 67 -31 76 -45 555 -321 615 -355 25 -14
128 -74 230 -133 102 -59 259 -151 350 -203 91 -52 198 -115 239 -138 41 -24
76 -43 77 -41 3 2 -8 44 -70 274 -26 95 -57 212 -70 260 -13 48 -70 259 -126
468 -180 668 -279 1040 -277 1041 4 1 1182 316 1191 318 9 1 43 -121 315
-1149 89 -335 176 -662 193 -725 17 -63 41 -155 54 -205 13 -49 31 -115 39
-145 9 -30 60 -226 115 -435 105 -397 117 -444 145 -537 l16 -57 177 -102 c97
-56 240 -139 317 -184 77 -45 160 -94 185 -107 25 -14 252 -146 505 -293 253
-147 480 -279 504 -293 25 -14 68 -38 95 -55 28 -16 66 -38 85 -49 41 -23 422
-245 591 -343 69 -40 141 -82 160 -92 19 -11 226 -132 460 -268 234 -136 440
-256 459 -267 18 -10 36 -17 39 -14 2 3 5 934 5 2069 l0 2064 -507 509 c-278
280 -815 818 -1192 1195 l-685 686 441 439 c243 241 443 441 445 443 2 2 84
-78 182 -177 775 -786 1307 -1321 1311 -1317 3 2 5 401 5 885 l0 880 646 -2
646 -3 0 -8015z"/>
<path d="M9743 9830 l0 -9040 21 -1 c32 0 1545 -1 1598 0 l48 1 -1 1460 c0
803 2 1464 5 1469 3 5 31 12 62 16 31 4 68 9 83 11 49 9 246 44 271 49 14 3
36 7 50 10 147 27 503 128 735 208 339 117 769 316 1064 491 62 38 116 64 121
59 6 -7 904 -1111 1218 -1498 62 -77 130 -160 150 -184 20 -24 49 -60 65 -80
15 -20 43 -54 61 -76 24 -29 292 -358 352 -434 3 -3 55 38 169 134 40 33 116
95 145 118 14 11 99 80 145 119 11 9 146 119 300 243 154 125 291 237 305 249
14 12 69 57 122 100 99 81 101 84 68 116 -3 3 -33 39 -66 80 -104 129 -728
895 -734 900 -3 3 -32 39 -65 80 -33 41 -62 77 -65 80 -3 3 -21 25 -40 50 -39
50 -51 65 -106 131 -22 25 -93 112 -159 193 -66 82 -227 279 -358 439 l-237
291 27 29 c16 17 35 38 43 47 8 9 33 36 55 61 109 121 269 322 381 479 126
175 185 267 325 500 224 374 455 914 589 1375 31 107 96 362 104 408 3 15 7
35 10 45 7 21 55 292 63 352 3 25 9 54 13 65 7 20 18 20 1471 20 l1464 0 0
830 0 830 -1467 3 -1468 2 -4 23 c-3 12 -8 40 -10 62 -12 86 -25 162 -50 290
-41 209 -84 378 -152 600 -51 165 -161 474 -204 570 -10 22 -32 74 -50 115
-162 375 -425 826 -688 1180 -95 128 -277 353 -332 412 -37 38 -105 118 -111
130 -3 5 44 68 123 163 9 11 90 110 180 221 314 386 634 778 753 924 66 81
136 166 155 190 19 24 76 94 125 154 103 126 432 530 482 592 l33 41 -83 66
c-46 36 -97 77 -113 91 -16 14 -83 68 -149 121 -66 53 -133 108 -150 122 -16
13 -167 135 -334 271 -167 136 -338 275 -379 309 l-75 62 -46 -57 c-25 -31
-54 -66 -63 -77 -9 -11 -177 -218 -373 -460 -196 -242 -367 -451 -378 -465
-19 -21 -108 -132 -207 -254 -29 -36 -322 -397 -459 -566 -52 -63 -146 -179
-209 -257 -64 -79 -119 -143 -124 -143 -4 0 -47 24 -95 53 -417 252 -969 486
-1463 620 -167 45 -356 91 -420 102 -19 3 -53 10 -75 15 -22 5 -60 12 -85 15
-25 4 -49 8 -55 9 -5 1 -49 8 -97 16 l-88 13 0 56 c0 31 -1 692 -1 1469 l0
1412 -833 0 -833 0 0 -9040z m1440 8831 c16 -1 17 -77 17 -1456 l0 -1454 33
-5 c17 -3 70 -11 117 -17 425 -53 857 -158 1270 -309 80 -29 163 -61 184 -71
22 -11 43 -19 47 -19 4 0 42 -16 83 -35 42 -19 79 -35 82 -35 13 0 422 -209
497 -254 43 -25 80 -46 82 -46 2 0 53 -31 112 -68 59 -37 113 -71 119 -75 12
-7 20 2 280 323 82 102 230 284 329 405 98 121 226 279 284 350 58 72 107 132
110 135 4 3 62 75 131 160 68 85 127 157 130 160 3 3 30 37 60 75 30 39 57 72
60 75 3 3 73 88 155 190 148 183 290 357 306 374 6 7 131 -87 284 -216 11 -9
167 -136 348 -283 180 -146 327 -268 327 -271 0 -4 -512 -637 -785 -969 -218
-267 -298 -365 -509 -625 -87 -107 -174 -213 -192 -235 -53 -65 -191 -235
-252 -310 -31 -38 -67 -81 -79 -95 l-22 -24 22 -25 c12 -13 40 -43 62 -66 734
-775 1236 -1694 1485 -2719 45 -182 86 -396 106 -551 3 -22 7 -51 10 -65 2
-14 7 -52 10 -85 4 -33 8 -62 11 -65 3 -3 658 -5 1456 -5 l1452 0 0 -625 0
-625 -1453 -1 c-799 -1 -1454 -3 -1456 -5 -2 -2 -7 -34 -10 -71 -4 -37 -9 -77
-11 -90 -2 -13 -6 -41 -9 -63 -4 -22 -8 -51 -11 -65 -2 -14 -7 -41 -9 -60 -6
-39 -33 -184 -40 -215 -2 -11 -12 -54 -21 -95 -55 -253 -122 -483 -217 -745
-66 -184 -109 -288 -208 -500 -261 -565 -646 -1125 -1087 -1584 l-82 -86 37
-45 c20 -25 39 -47 42 -50 3 -3 21 -25 40 -50 37 -48 46 -59 106 -131 22 -25
53 -64 70 -85 35 -43 566 -695 619 -759 51 -62 266 -326 305 -375 19 -24 40
-48 45 -54 6 -6 49 -58 95 -116 47 -58 92 -114 102 -125 128 -153 378 -467
378 -475 0 -5 -3 -10 -8 -10 -4 0 -18 -10 -32 -23 -14 -12 -53 -45 -86 -72
-135 -110 -311 -253 -558 -454 -142 -116 -262 -211 -265 -211 -4 0 -81 91
-171 202 -390 478 -451 553 -560 688 -63 79 -120 148 -125 154 -6 6 -58 69
-115 140 -58 72 -127 157 -154 190 -137 168 -580 712 -645 793 l-74 91 -66
-42 c-65 -42 -229 -140 -306 -183 -85 -48 -395 -201 -495 -245 -208 -92 -470
-188 -670 -247 -58 -17 -118 -35 -135 -41 -46 -14 -275 -70 -315 -76 -19 -3
-38 -8 -41 -10 -4 -2 -24 -6 -44 -10 -21 -3 -47 -8 -59 -10 -52 -11 -183 -34
-225 -39 -25 -3 -53 -7 -61 -10 -8 -2 -42 -6 -75 -10 -33 -3 -79 -8 -102 -11
l-43 -6 0 -1457 0 -1456 -617 1 c-340 1 -621 2 -625 3 -8 1 -11 17654 -4
17662 3 3 1155 3 1229 0z"/>
</g>
</svg>
